<svg width="30" height="30" viewBox="0 0 30 30" fill="none" xmlns="http://www.w3.org/2000/svg">
<path fill-rule="evenodd" clip-rule="evenodd" d="M9.1433 15.071C9.1817 18.2584 11.8026 20.8571 15.0634 20.8571C16.0446 20.8571 16.9692 20.6212 17.7831 20.2041C13.7739 19.4705 10.5972 16.3396 9.84061 12.3473C9.4054 13.1635 9.15497 14.09 9.1433 15.071ZM11.6726 10.2664C11.6701 10.3474 11.6689 10.4287 11.6689 10.5102C11.6689 14.8496 15.215 18.3673 19.5894 18.3673C19.6978 18.3673 19.8058 18.3652 19.9132 18.3609C20.058 18.3551 20.2019 18.3455 20.3446 18.3321C20.9326 17.4066 21.2719 16.3122 21.2719 15.1429C21.2719 11.8443 18.5719 9.14286 15.2074 9.14286C13.8854 9.14286 12.6659 9.55994 11.6726 10.2664ZM12.1808 7.72534C13.0723 7.36701 14.0432 7.16226 15.0599 7.14417C15.109 7.1433 15.1581 7.14286 15.2074 7.14286C19.6613 7.14286 23.2719 10.7246 23.2719 15.1429C23.2719 19.5611 19.6613 23.1428 15.2074 23.1428C10.7535 23.1428 7.14287 19.5611 7.14287 15.1429C7.14287 15.1189 7.14297 15.095 7.14319 15.0711C7.14297 15.0474 7.14287 15.0237 7.14287 15C7.14287 12.6836 8.15338 10.6012 9.76097 9.1632C10.4702 8.5288 11.2955 8.01979 12.2016 7.67138C12.1946 7.68933 12.1877 7.70732 12.1808 7.72534Z" fill="#373D34"/>
<path d="M28.9682 13.9683H25.9127C25.3571 13.9683 24.8809 14.4444 24.8809 15C24.8809 15.5556 25.3571 16.0318 25.9127 16.0318H28.9682C29.5238 16.0318 30 15.5556 30 15C30 14.4444 29.5238 13.9683 28.9682 13.9683Z" fill="#373D34"/>
<path d="M15 24.881C14.4444 24.881 13.9682 25.3571 13.9682 25.9127V28.9683C13.9682 29.5238 14.4444 30 15 30C15.5555 30 16.0317 29.5238 16.0317 28.9683V25.9127C16.0317 25.3571 15.5555 24.881 15 24.881Z" fill="#373D34"/>
<path d="M25.5952 24.1667L23.4127 21.9841C23.0555 21.5873 22.3809 21.5873 21.9841 21.9841C21.5873 22.381 21.5873 23.0159 21.9841 23.4127L24.1667 25.5952C24.5635 25.9921 25.1984 25.9921 25.5952 25.5952C25.9921 25.1984 25.9921 24.5635 25.5952 24.1667Z" fill="#373D34"/>
<path d="M15 0C14.4444 0 13.9682 0.47619 13.9682 1.03175V4.0873C13.9682 4.64286 14.4444 5.11905 15 5.11905C15.5555 5.11905 16.0317 4.64286 16.0317 4.0873V1.03175C16.0317 0.47619 15.5555 0 15 0Z" fill="#373D34"/>
<path d="M25.6349 4.40477C25.2381 4.00794 24.6032 4.00794 24.2064 4.40477L22.0238 6.58731C21.627 6.98413 21.627 7.61905 22.0238 8.01588C22.381 8.4127 23.0556 8.4127 23.4524 8.01588L25.6349 5.83334C26.0317 5.43651 26.0317 4.80159 25.6349 4.40477Z" fill="#373D34"/>
<path d="M4.0873 13.9683H1.03175C0.47619 13.9683 0 14.4444 0 15C0 15.5556 0.436508 16.0318 1.03175 16.0318H4.0873C4.64286 16.0318 5.11905 15.5556 5.11905 15C5.11905 14.4444 4.64286 13.9683 4.0873 13.9683Z" fill="#373D34"/>
<path d="M7.97621 21.9841C7.61906 21.5873 6.94446 21.5873 6.54763 21.9841L4.36509 24.1667C3.96827 24.5635 3.96827 25.1984 4.36509 25.5952C4.76192 25.9921 5.39684 25.9921 5.79367 25.5952L7.97621 23.4127C8.37303 23.0159 8.37303 22.381 7.97621 21.9841Z" fill="#373D34"/>
<path d="M7.97621 6.58731L5.79367 4.40477C5.39684 4.00794 4.76192 4.00794 4.36509 4.40477C3.96827 4.80159 3.96827 5.43651 4.36509 5.83334L6.54763 8.01588C6.94446 8.4127 7.57938 8.4127 7.97621 8.01588C8.37303 7.61905 8.37303 6.98413 7.97621 6.58731Z" fill="#373D34"/>
</svg>
