<svg width="154" height="29" viewBox="0 0 154 29" fill="none" xmlns="http://www.w3.org/2000/svg">
<path d="M80.92 13.264C80.92 13.888 81.008 14.328 81.184 14.584C81.36 14.824 81.712 15.024 82.24 15.184L82.672 15.304L82.48 16H77.128L76.864 15.256L77.392 15.136C77.952 14.96 78.32 14.752 78.496 14.512C78.672 14.256 78.76 13.792 78.76 13.12V3.28C78.76 2.608 78.664 2.144 78.472 1.888C78.296 1.616 77.936 1.408 77.392 1.264L76.864 1.144L77.128 0.399999H81.904L82.192 0.735999L81.904 1.144C81.536 1.608 81.28 2.112 81.136 2.656C80.992 3.184 80.92 3.88 80.92 4.744V13.264ZM90.664 15.448C90.104 16.024 89.408 16.312 88.576 16.312C87.92 16.312 87.36 16.136 86.896 15.784C86.448 15.432 86.04 14.896 85.672 14.176L83.704 10.216C83.496 9.768 83.208 9.416 82.84 9.16C82.488 8.888 82.048 8.664 81.52 8.488C81.472 8.456 81.448 8.376 81.448 8.248C81.448 7.896 81.592 7.72 81.88 7.72H82.384L85.936 3.208C86.208 2.84 86.344 2.448 86.344 2.032C86.344 1.664 86.24 1.352 86.032 1.096L85.792 0.735999L86.2 0.399999H89.92L90.184 1.144L89.656 1.264C89.336 1.344 89.04 1.472 88.768 1.648C88.512 1.824 88.248 2.088 87.976 2.44L83.56 8.056C84.264 8.168 84.848 8.416 85.312 8.8C85.776 9.168 86.192 9.712 86.56 10.432L88.624 14.464C88.736 14.688 88.856 14.856 88.984 14.968C89.128 15.064 89.296 15.112 89.488 15.112C89.776 15.112 90.056 15.008 90.328 14.8L90.664 15.448Z" fill="#4B5048"/>
<path d="M95.6851 16.312C94.9811 16.312 94.3251 16.112 93.7171 15.712C93.1251 15.296 92.6451 14.696 92.2771 13.912C91.9251 13.112 91.7491 12.144 91.7491 11.008C91.7491 9.136 92.2531 7.656 93.2611 6.568C94.2851 5.48 95.6611 4.936 97.3891 4.936C97.9651 4.936 98.7491 5.024 99.7411 5.2C100.477 5.328 101.141 5.416 101.733 5.464L102.021 5.728L101.709 6.136C101.597 6.328 101.517 6.48 101.469 6.592C101.437 6.688 101.421 6.824 101.421 7V14.08C101.421 14.528 101.653 14.752 102.117 14.752C102.469 14.752 102.829 14.624 103.197 14.368L103.605 14.92C103.221 15.352 102.813 15.696 102.381 15.952C101.949 16.192 101.557 16.312 101.205 16.312C100.597 16.312 100.157 16.136 99.8851 15.784C99.6131 15.416 99.4771 14.824 99.4771 14.008C98.9011 14.856 98.3011 15.456 97.6771 15.808C97.0691 16.144 96.4051 16.312 95.6851 16.312ZM96.5251 14.608C97.7411 14.608 98.7251 13.952 99.4771 12.64V6.76C98.8531 6.344 98.1491 6.136 97.3651 6.136C96.3251 6.136 95.5091 6.528 94.9171 7.312C94.3411 8.08 94.0531 9.176 94.0531 10.6C94.0531 11.976 94.2851 12.992 94.7491 13.648C95.2291 14.288 95.8211 14.608 96.5251 14.608Z" fill="#4B5048"/>
<path d="M103.843 15.328L104.347 15.184C104.843 15.04 105.171 14.84 105.331 14.584C105.507 14.328 105.643 13.92 105.739 13.36L106.603 7.456C106.619 7.392 106.627 7.296 106.627 7.168C106.627 6.848 106.523 6.6 106.315 6.424C106.123 6.248 105.819 6.104 105.403 5.992L104.995 5.848L105.187 5.2H108.835L111.955 11.824L115.123 5.2H117.955L118.291 5.488L118.003 5.848C117.491 6.536 117.235 7.2 117.235 7.84C117.235 8.032 117.259 8.224 117.307 8.416L118.051 12.112C118.083 12.24 118.115 12.416 118.147 12.64C118.339 13.488 118.507 14.12 118.651 14.536C118.795 14.936 119.051 15.32 119.419 15.688L119.179 16H114.787L114.547 15.328L114.979 15.184C115.395 15.072 115.699 14.896 115.891 14.656C116.083 14.416 116.179 14.096 116.179 13.696C116.179 13.488 116.155 13.256 116.107 13L115.243 7.576L111.979 14.56H111.307L108.019 7.576L107.203 12.808C107.171 13.032 107.155 13.192 107.155 13.288C107.155 13.944 107.395 14.624 107.875 15.328L108.139 15.688L107.851 16H104.107L103.843 15.328Z" fill="#4B5048"/>
<path d="M123.351 3.112C123.111 3.112 122.831 2.944 122.511 2.608C122.191 2.272 122.031 1.968 122.031 1.696C122.031 1.424 122.183 1.12 122.487 0.783999C122.807 0.447999 123.095 0.279999 123.351 0.279999C123.623 0.279999 123.919 0.447999 124.239 0.783999C124.559 1.12 124.719 1.424 124.719 1.696C124.719 1.968 124.559 2.272 124.239 2.608C123.919 2.944 123.623 3.112 123.351 3.112ZM124.071 16.312C123.479 16.312 123.047 16.136 122.775 15.784C122.519 15.416 122.391 14.824 122.391 14.008V7.288C122.391 7.096 122.359 6.96 122.295 6.88C122.231 6.8 122.119 6.76 121.959 6.76H120.975L120.807 6.232C121.223 5.848 121.695 5.536 122.223 5.296C122.767 5.056 123.239 4.936 123.639 4.936C123.847 4.936 124.015 5 124.143 5.128C124.287 5.24 124.359 5.392 124.359 5.584V14.08C124.359 14.576 124.575 14.824 125.007 14.824C125.343 14.824 125.711 14.672 126.111 14.368L126.519 14.92C126.119 15.336 125.695 15.672 125.247 15.928C124.815 16.184 124.423 16.312 124.071 16.312Z" fill="#4B5048"/>
<path d="M127.869 15.328L128.325 15.184C128.821 15.04 129.149 14.856 129.309 14.632C129.485 14.392 129.573 13.968 129.573 13.36V7.84C129.573 7.232 129.485 6.808 129.309 6.568C129.149 6.328 128.821 6.136 128.325 5.992L127.869 5.848L128.109 5.2H132.429L132.693 5.488L132.429 5.848C132.109 6.28 131.877 6.752 131.733 7.264C131.605 7.76 131.541 8.416 131.541 9.232V9.928H136.773V7.84C136.773 7.232 136.685 6.808 136.509 6.568C136.349 6.328 136.013 6.136 135.501 5.992L135.021 5.848L135.285 5.2H139.605L139.893 5.488L139.605 5.848C139.285 6.28 139.061 6.744 138.933 7.24C138.805 7.736 138.741 8.4 138.741 9.232V13.504C138.741 14.08 138.821 14.48 138.981 14.704C139.141 14.912 139.461 15.088 139.941 15.232L140.325 15.352L140.133 16H135.285L135.021 15.328L135.501 15.184C136.013 15.04 136.349 14.856 136.509 14.632C136.685 14.392 136.773 13.968 136.773 13.36V11.2H131.541V13.504C131.541 14.08 131.621 14.48 131.781 14.704C131.957 14.912 132.285 15.088 132.765 15.232L133.197 15.352L132.981 16H128.109L127.869 15.328Z" fill="#4B5048"/>
<path d="M142.447 15.328L142.903 15.184C143.399 15.04 143.727 14.848 143.887 14.608C144.063 14.368 144.151 13.952 144.151 13.36V7.84C144.151 7.248 144.063 6.832 143.887 6.592C143.711 6.336 143.383 6.136 142.903 5.992L142.447 5.848L142.687 5.2H147.031L147.295 5.488L147.031 5.848C146.695 6.296 146.455 6.768 146.311 7.264C146.183 7.76 146.119 8.416 146.119 9.232V11.968C146.119 12.848 146.239 13.512 146.479 13.96C146.735 14.392 147.031 14.664 147.367 14.776C147.719 14.888 148.135 14.944 148.615 14.944C149.335 14.944 149.911 14.744 150.343 14.344C150.791 13.928 151.015 13.384 151.015 12.712C151.015 12.104 150.767 11.6 150.271 11.2C149.775 10.784 149.135 10.576 148.351 10.576C147.935 10.576 147.599 10.616 147.343 10.696C147.103 10.76 146.951 10.792 146.887 10.792C146.823 10.792 146.767 10.752 146.719 10.672C146.671 10.576 146.647 10.48 146.647 10.384C146.647 10.112 146.855 9.912 147.271 9.784C147.687 9.656 148.175 9.592 148.735 9.592C150.191 9.592 151.311 9.896 152.095 10.504C152.895 11.112 153.295 11.872 153.295 12.784C153.295 13.776 152.887 14.56 152.071 15.136C151.271 15.712 149.999 16 148.255 16H142.687L142.447 15.328Z" fill="#4B5048"/>
<path d="M0.640015 15.256L1.14401 15.136C1.73601 14.96 2.16001 14.752 2.41601 14.512C2.67201 14.256 2.91201 13.792 3.13601 13.12L6.54401 3.27999C6.70402 2.76799 6.78402 2.41599 6.78402 2.22399C6.78402 1.95199 6.70402 1.74399 6.54401 1.59999C6.40002 1.43999 6.16002 1.32799 5.82402 1.26399L5.32001 1.14399L5.58402 0.399994H9.76001L14.152 12.976C14.392 13.664 14.64 14.176 14.896 14.512C15.168 14.848 15.576 15.224 16.12 15.64L15.832 16H10.912L10.672 15.256L11.2 15.136C11.536 15.056 11.776 14.944 11.92 14.8C12.08 14.64 12.16 14.424 12.16 14.152C12.16 13.992 12.12 13.808 12.04 13.6C11.976 13.376 11.928 13.216 11.896 13.12L10.864 10.072H5.84801L5.32001 11.656C5.00002 12.648 4.84001 13.408 4.84001 13.936C4.84001 14.464 4.94402 14.904 5.15202 15.256L5.32001 15.64L4.91201 16H0.928015L0.640015 15.256ZM6.32802 8.70399H10.432L8.34402 2.60799L6.32802 8.70399Z" fill="#4B5048"/>
<path d="M17.6001 21.472L17.8401 21.112C18.1121 20.744 18.3041 20.352 18.4161 19.936C18.5281 19.536 18.5841 18.992 18.5841 18.304V7.71999C18.5841 7.51199 18.5521 7.35199 18.4881 7.23999C18.4241 7.12799 18.3041 7.04799 18.1281 6.99999L17.0001 6.73599V6.06399C17.2241 5.85599 17.6561 5.65599 18.2961 5.46399C18.9361 5.27199 19.4961 5.17599 19.9761 5.17599C20.3441 5.17599 20.5281 5.51199 20.5281 6.18399V6.27999C21.4561 5.38399 22.5041 4.93599 23.6721 4.93599C24.5521 4.93599 25.3441 5.15999 26.0481 5.60799C26.7521 6.05599 27.2961 6.67999 27.6801 7.47999C28.0801 8.26399 28.2801 9.16799 28.2801 10.192C28.2801 11.344 28.0721 12.392 27.6561 13.336C27.2401 14.264 26.6641 14.992 25.9281 15.52C25.2081 16.048 24.4001 16.312 23.5041 16.312C22.6401 16.312 21.9201 16.112 21.3441 15.712C21.2001 15.632 21.1281 15.504 21.1281 15.328C21.1281 15.168 21.1521 15.04 21.2001 14.944C21.2641 14.832 21.3521 14.776 21.4641 14.776C21.5121 14.776 21.6641 14.84 21.9201 14.968C22.1921 15.08 22.5441 15.136 22.9761 15.136C23.8721 15.136 24.5921 14.712 25.1361 13.864C25.6961 13.016 25.9761 11.928 25.9761 10.6C25.9761 9.35199 25.6961 8.33599 25.1361 7.55199C24.5921 6.75199 23.8641 6.35199 22.9521 6.35199C22.4721 6.35199 22.0401 6.41599 21.6561 6.54399C21.2721 6.67199 20.8961 6.88799 20.5281 7.19199V19.384C20.5281 19.944 20.5841 20.336 20.6961 20.56C20.8241 20.784 21.0721 20.936 21.4401 21.016L21.8721 21.112L21.6801 21.76H17.8401L17.6001 21.472Z" fill="#4B5048"/>
<path d="M32.4576 15.664L32.7216 15.328C33.0576 14.896 33.2896 14.432 33.4176 13.936C33.5456 13.44 33.6096 12.784 33.6096 11.968V7.95999C33.6096 7.35199 33.5616 6.95199 33.4656 6.75999C33.3856 6.56799 33.2016 6.47199 32.9136 6.47199H32.6976C32.2016 6.47199 31.8176 6.51999 31.5456 6.61599C31.2896 6.71199 31.0816 6.87999 30.9216 7.11999C30.7776 7.35999 30.6416 7.73599 30.5136 8.24799L30.3696 8.67999L29.6976 8.48799V4.91199L30.0336 4.62399L30.3696 4.91199C30.5616 5.05599 30.8416 5.15999 31.2096 5.22399C31.5776 5.28799 32.0656 5.31999 32.6736 5.31999H36.5376C37.1456 5.31999 37.6256 5.28799 37.9776 5.22399C38.3296 5.15999 38.6016 5.05599 38.7936 4.91199L39.1296 4.62399L39.4896 4.91199V8.48799L38.7936 8.67999L38.6976 8.24799C38.5536 7.73599 38.4016 7.35999 38.2416 7.11999C38.0976 6.87999 37.8976 6.71199 37.6416 6.61599C37.3856 6.51999 37.0176 6.47199 36.5376 6.47199H36.2496C35.9776 6.47199 35.7936 6.56799 35.6976 6.75999C35.6176 6.95199 35.5776 7.35199 35.5776 7.95999V13.36C35.5776 13.968 35.6576 14.392 35.8176 14.632C35.9776 14.856 36.3136 15.04 36.8256 15.184L37.3296 15.328L37.0656 16H32.7216L32.4576 15.664Z" fill="#4B5048"/>
<path d="M47 0H69L68 3H48L47 0Z" fill="#4B5048"/>
<path d="M50 4H66V6H50V4Z" fill="#4B5048"/>
<path d="M52 7H54V25.5L53 26H52V7Z" fill="#4B5048"/>
<path d="M55 7H58V24L57 23.5L56 24.5L55 25V7Z" fill="#4B5048"/>
<path d="M59 7H62V26.5H61L60 25.5L59 25V7Z" fill="#4B5048"/>
<path d="M63 7H65V27L64 26H63V7Z" fill="#4B5048"/>
<path d="M80.768 28.104C80.7307 28.0667 80.688 28.04 80.64 28.024C80.5973 28.008 80.5387 28 80.464 28H77.408L77.32 27.768L77.48 27.728C77.656 27.6747 77.7733 27.608 77.832 27.528C77.8907 27.4427 77.92 27.296 77.92 27.088V24.248C77.92 23.96 77.896 23.728 77.848 23.552C77.8 23.376 77.7173 23.208 77.6 23.048L77.504 22.912L77.6 22.8H79.816C80.2373 22.8 80.5093 22.7493 80.632 22.648L80.776 22.552L80.88 22.648V23.936L80.632 24.024L80.592 23.848C80.528 23.5867 80.4453 23.4133 80.344 23.328C80.2427 23.2427 80.0667 23.2 79.816 23.2H79.104C78.9173 23.2 78.792 23.2373 78.728 23.312C78.6693 23.3867 78.64 23.536 78.64 23.76V25.152H79.56C79.6827 25.152 79.7867 25.128 79.872 25.08C79.9573 25.032 80.0453 24.9467 80.136 24.824L80.192 24.744L80.336 24.824V26.064L80.096 26.152L80.048 25.968C79.9947 25.8027 79.9147 25.6933 79.808 25.64C79.7013 25.5867 79.5147 25.56 79.248 25.56H78.64V27.04C78.64 27.1947 78.6507 27.312 78.672 27.392C78.6987 27.4667 78.744 27.5173 78.808 27.544C78.872 27.5707 78.9707 27.584 79.104 27.584H79.88C80.056 27.584 80.192 27.568 80.288 27.536C80.384 27.4987 80.4587 27.4347 80.512 27.344C80.5707 27.2533 80.624 27.12 80.672 26.944L80.72 26.784L80.96 26.856V28.104L80.824 28.176L80.768 28.104Z" fill="#4B5048"/>
<path d="M88.1663 28.104C87.8196 28.104 87.5076 28.056 87.2303 27.96C86.9583 27.8587 86.7449 27.72 86.5903 27.544C86.4409 27.3627 86.3663 27.16 86.3663 26.936C86.3663 26.6907 86.4436 26.488 86.5983 26.328C86.7583 26.168 86.9583 26.088 87.1983 26.088C87.2463 26.088 87.2836 26.096 87.3103 26.112C87.3369 26.128 87.3503 26.1467 87.3503 26.168C87.3503 26.184 87.3263 26.2267 87.2783 26.296C87.2356 26.3653 87.1983 26.4427 87.1663 26.528C87.1343 26.6133 87.1183 26.7147 87.1183 26.832C87.1183 27.088 87.2143 27.296 87.4063 27.456C87.5983 27.616 87.8516 27.696 88.1663 27.696C88.4436 27.696 88.6676 27.624 88.8383 27.48C89.0089 27.3307 89.0943 27.128 89.0943 26.872C89.0943 26.664 89.0409 26.488 88.9343 26.344C88.8276 26.2 88.6943 26.0827 88.5343 25.992C88.3796 25.896 88.1689 25.7893 87.9023 25.672C87.5983 25.5387 87.3503 25.4133 87.1583 25.296C86.9716 25.1787 86.8116 25.024 86.6783 24.832C86.5503 24.64 86.4863 24.3973 86.4863 24.104C86.4863 23.8587 86.5449 23.6293 86.6623 23.416C86.7849 23.1973 86.9663 23.024 87.2063 22.896C87.4463 22.7627 87.7369 22.696 88.0783 22.696C88.3876 22.696 88.6649 22.7413 88.9103 22.832C89.1556 22.9227 89.3476 23.048 89.4863 23.208C89.6249 23.368 89.6943 23.552 89.6943 23.76C89.6943 24.0053 89.6196 24.208 89.4703 24.368C89.3263 24.5227 89.1423 24.6 88.9183 24.6C88.8223 24.6 88.7743 24.5707 88.7743 24.512C88.7743 24.5013 88.7929 24.464 88.8303 24.4C88.8729 24.3307 88.9103 24.2533 88.9423 24.168C88.9743 24.0773 88.9903 23.9733 88.9903 23.856C88.9903 23.6373 88.9049 23.456 88.7343 23.312C88.5636 23.168 88.3449 23.096 88.0783 23.096C87.7903 23.096 87.5689 23.1787 87.4143 23.344C87.2596 23.504 87.1823 23.7013 87.1823 23.936C87.1823 24.1173 87.2329 24.272 87.3343 24.4C87.4356 24.528 87.5609 24.6373 87.7103 24.728C87.8596 24.8133 88.0676 24.9147 88.3343 25.032C88.6543 25.176 88.9129 25.3093 89.1103 25.432C89.3129 25.5547 89.4836 25.72 89.6223 25.928C89.7609 26.1307 89.8303 26.384 89.8303 26.688C89.8303 27.12 89.6836 27.464 89.3903 27.72C89.1023 27.976 88.6943 28.104 88.1663 28.104Z" fill="#4B5048"/>
<path d="M96.2109 27.88L96.2989 27.752C96.4215 27.592 96.5069 27.4267 96.5549 27.256C96.6029 27.08 96.6269 26.8427 96.6269 26.544V23.76C96.6269 23.5307 96.6109 23.3813 96.5789 23.312C96.5469 23.2373 96.4775 23.2 96.3709 23.2H96.0429C95.8669 23.2 95.7309 23.2187 95.6349 23.256C95.5442 23.2933 95.4695 23.3573 95.4109 23.448C95.3575 23.5387 95.3069 23.672 95.2589 23.848L95.2189 24.024L94.9709 23.936V22.648L95.0909 22.552L95.2189 22.648C95.3469 22.7493 95.6189 22.8 96.0349 22.8H97.9309C98.3522 22.8 98.6242 22.7493 98.7469 22.648L98.8749 22.552L98.9949 22.648V23.936L98.7469 24.024L98.7069 23.848C98.6375 23.5867 98.5522 23.4133 98.4509 23.328C98.3495 23.2427 98.1735 23.2 97.9229 23.2H97.5869C97.4855 23.2 97.4162 23.2373 97.3789 23.312C97.3469 23.3867 97.3309 23.536 97.3309 23.76V27.04C97.3309 27.264 97.3602 27.4187 97.4189 27.504C97.4829 27.584 97.6109 27.6533 97.8029 27.712L97.9789 27.752L97.8909 28H96.2989L96.2109 27.88Z" fill="#4B5048"/>
<path d="M104.067 27.752L104.243 27.712C104.393 27.664 104.505 27.6 104.579 27.52C104.659 27.4347 104.699 27.3013 104.699 27.12V23.456C104.699 23.392 104.686 23.3493 104.659 23.328C104.633 23.3013 104.593 23.288 104.539 23.288H104.123L104.035 23.016C104.265 22.936 104.563 22.864 104.931 22.8C105.299 22.7307 105.654 22.696 105.995 22.696C107.003 22.696 107.729 22.9467 108.171 23.448C108.614 23.9493 108.835 24.6027 108.835 25.408C108.835 25.8987 108.745 26.3413 108.563 26.736C108.382 27.1253 108.11 27.4347 107.747 27.664C107.39 27.888 106.95 28 106.427 28H104.155L104.067 27.752ZM106.203 27.632C107.435 27.632 108.051 26.8853 108.051 25.392C108.051 24.9813 107.979 24.6027 107.835 24.256C107.697 23.9093 107.483 23.6293 107.195 23.416C106.907 23.2027 106.553 23.096 106.131 23.096C105.657 23.096 105.419 23.2107 105.419 23.44V26.728C105.419 27.0747 105.491 27.312 105.635 27.44C105.779 27.568 105.969 27.632 106.203 27.632Z" fill="#4B5048"/>
<path d="M121.449 27.752L121.761 27.68C121.894 27.648 121.99 27.6107 122.049 27.568C122.113 27.5253 122.158 27.4667 122.185 27.392C122.211 27.312 122.225 27.1947 122.225 27.04V23.536L121.337 24.112C121.23 24.096 121.134 24.04 121.049 23.944C120.963 23.848 120.891 23.7387 120.833 23.616L122.841 22.68C122.963 22.7067 123.059 22.7973 123.129 22.952L122.945 23.072V26.544C122.945 26.8427 122.969 27.08 123.017 27.256C123.065 27.432 123.15 27.5973 123.273 27.752L123.353 27.88L123.273 28H121.537L121.449 27.752Z" fill="#4B5048"/>
<path d="M130.937 28.104C130.515 28.104 130.169 28.0107 129.897 27.824C129.625 27.632 129.489 27.3867 129.489 27.088C129.489 26.8907 129.555 26.7333 129.689 26.616C129.827 26.4933 130.003 26.432 130.217 26.432C130.265 26.432 130.302 26.44 130.329 26.456C130.355 26.472 130.369 26.4907 130.369 26.512C130.369 26.528 130.339 26.5893 130.281 26.696C130.227 26.7973 130.201 26.9147 130.201 27.048C130.201 27.24 130.267 27.3947 130.401 27.512C130.539 27.6293 130.715 27.688 130.929 27.688C131.382 27.688 131.71 27.4827 131.913 27.072C132.115 26.6613 132.217 26.1547 132.217 25.552C132.217 25.376 132.214 25.248 132.209 25.168C132.086 25.4187 131.899 25.6213 131.649 25.776C131.403 25.9253 131.118 26 130.793 26C130.494 26 130.238 25.9307 130.025 25.792C129.811 25.648 129.649 25.4613 129.537 25.232C129.43 25.0027 129.377 24.7547 129.377 24.488C129.377 24.184 129.443 23.896 129.577 23.624C129.715 23.3467 129.918 23.1227 130.185 22.952C130.451 22.7813 130.771 22.696 131.145 22.696C131.763 22.696 132.225 22.96 132.529 23.488C132.833 24.016 132.985 24.696 132.985 25.528C132.985 26.0187 132.907 26.4587 132.753 26.848C132.603 27.2373 132.374 27.544 132.065 27.768C131.761 27.992 131.385 28.104 130.937 28.104ZM131.129 25.488C131.438 25.488 131.678 25.3733 131.849 25.144C132.019 24.9147 132.105 24.6453 132.105 24.336C132.105 24.0213 132.025 23.7493 131.865 23.52C131.705 23.2853 131.483 23.168 131.201 23.168C130.897 23.168 130.662 23.2827 130.497 23.512C130.331 23.7413 130.249 24.0133 130.249 24.328C130.249 24.6373 130.326 24.9093 130.481 25.144C130.635 25.3733 130.851 25.488 131.129 25.488Z" fill="#4B5048"/>
<path d="M140.748 28.104C140.327 28.104 139.98 28.0107 139.708 27.824C139.436 27.632 139.3 27.3867 139.3 27.088C139.3 26.8907 139.367 26.7333 139.5 26.616C139.639 26.4933 139.815 26.432 140.028 26.432C140.076 26.432 140.114 26.44 140.14 26.456C140.167 26.472 140.18 26.4907 140.18 26.512C140.18 26.528 140.151 26.5893 140.092 26.696C140.039 26.7973 140.012 26.9147 140.012 27.048C140.012 27.24 140.079 27.3947 140.212 27.512C140.351 27.6293 140.527 27.688 140.74 27.688C141.194 27.688 141.522 27.4827 141.724 27.072C141.927 26.6613 142.028 26.1547 142.028 25.552C142.028 25.376 142.026 25.248 142.02 25.168C141.898 25.4187 141.711 25.6213 141.46 25.776C141.215 25.9253 140.93 26 140.604 26C140.306 26 140.05 25.9307 139.836 25.792C139.623 25.648 139.46 25.4613 139.348 25.232C139.242 25.0027 139.188 24.7547 139.188 24.488C139.188 24.184 139.255 23.896 139.388 23.624C139.527 23.3467 139.73 23.1227 139.996 22.952C140.263 22.7813 140.583 22.696 140.956 22.696C141.575 22.696 142.036 22.96 142.34 23.488C142.644 24.016 142.796 24.696 142.796 25.528C142.796 26.0187 142.719 26.4587 142.564 26.848C142.415 27.2373 142.186 27.544 141.876 27.768C141.572 27.992 141.196 28.104 140.748 28.104ZM140.94 25.488C141.25 25.488 141.49 25.3733 141.66 25.144C141.831 24.9147 141.916 24.6453 141.916 24.336C141.916 24.0213 141.836 23.7493 141.676 23.52C141.516 23.2853 141.295 23.168 141.012 23.168C140.708 23.168 140.474 23.2827 140.308 23.512C140.143 23.7413 140.06 24.0133 140.06 24.328C140.06 24.6373 140.138 24.9093 140.292 25.144C140.447 25.3733 140.663 25.488 140.94 25.488Z" fill="#4B5048"/>
<path d="M150.56 28.104C150.139 28.104 149.792 28.0107 149.52 27.824C149.248 27.632 149.112 27.3867 149.112 27.088C149.112 26.8907 149.179 26.7333 149.312 26.616C149.451 26.4933 149.627 26.432 149.84 26.432C149.888 26.432 149.926 26.44 149.952 26.456C149.979 26.472 149.992 26.4907 149.992 26.512C149.992 26.528 149.963 26.5893 149.904 26.696C149.851 26.7973 149.824 26.9147 149.824 27.048C149.824 27.24 149.891 27.3947 150.024 27.512C150.163 27.6293 150.339 27.688 150.552 27.688C151.006 27.688 151.334 27.4827 151.536 27.072C151.739 26.6613 151.84 26.1547 151.84 25.552C151.84 25.376 151.838 25.248 151.832 25.168C151.71 25.4187 151.523 25.6213 151.272 25.776C151.027 25.9253 150.742 26 150.416 26C150.118 26 149.862 25.9307 149.648 25.792C149.435 25.648 149.272 25.4613 149.16 25.232C149.054 25.0027 149 24.7547 149 24.488C149 24.184 149.067 23.896 149.2 23.624C149.339 23.3467 149.542 23.1227 149.808 22.952C150.075 22.7813 150.395 22.696 150.768 22.696C151.387 22.696 151.848 22.96 152.152 23.488C152.456 24.016 152.608 24.696 152.608 25.528C152.608 26.0187 152.531 26.4587 152.376 26.848C152.227 27.2373 151.998 27.544 151.688 27.768C151.384 27.992 151.008 28.104 150.56 28.104ZM150.752 25.488C151.062 25.488 151.302 25.3733 151.472 25.144C151.643 24.9147 151.728 24.6453 151.728 24.336C151.728 24.0213 151.648 23.7493 151.488 23.52C151.328 23.2853 151.107 23.168 150.824 23.168C150.52 23.168 150.286 23.2827 150.12 23.512C149.955 23.7413 149.872 24.0133 149.872 24.328C149.872 24.6373 149.95 24.9093 150.104 25.144C150.259 25.3733 150.475 25.488 150.752 25.488Z" fill="#4B5048"/>
</svg>
