<svg width="154" height="30" viewBox="0 0 154 30" fill="none" xmlns="http://www.w3.org/2000/svg">
<path d="M80.92 20.264C80.92 20.888 81.008 21.328 81.184 21.584C81.36 21.824 81.712 22.024 82.24 22.184L82.672 22.304L82.48 23H77.128L76.864 22.256L77.392 22.136C77.952 21.96 78.32 21.752 78.496 21.512C78.672 21.256 78.76 20.792 78.76 20.12V10.28C78.76 9.608 78.664 9.144 78.472 8.888C78.296 8.616 77.936 8.408 77.392 8.264L76.864 8.144L77.128 7.4H81.904L82.192 7.736L81.904 8.144C81.536 8.608 81.28 9.112 81.136 9.656C80.992 10.184 80.92 10.88 80.92 11.744V20.264ZM90.664 22.448C90.104 23.024 89.408 23.312 88.576 23.312C87.92 23.312 87.36 23.136 86.896 22.784C86.448 22.432 86.04 21.896 85.672 21.176L83.704 17.216C83.496 16.768 83.208 16.416 82.84 16.16C82.488 15.888 82.048 15.664 81.52 15.488C81.472 15.456 81.448 15.376 81.448 15.248C81.448 14.896 81.592 14.72 81.88 14.72H82.384L85.936 10.208C86.208 9.84 86.344 9.448 86.344 9.032C86.344 8.664 86.24 8.352 86.032 8.096L85.792 7.736L86.2 7.4H89.92L90.184 8.144L89.656 8.264C89.336 8.344 89.04 8.472 88.768 8.648C88.512 8.824 88.248 9.088 87.976 9.44L83.56 15.056C84.264 15.168 84.848 15.416 85.312 15.8C85.776 16.168 86.192 16.712 86.56 17.432L88.624 21.464C88.736 21.688 88.856 21.856 88.984 21.968C89.128 22.064 89.296 22.112 89.488 22.112C89.776 22.112 90.056 22.008 90.328 21.8L90.664 22.448ZM95.6851 23.312C94.9811 23.312 94.3251 23.112 93.7171 22.712C93.1251 22.296 92.6451 21.696 92.2771 20.912C91.9251 20.112 91.7491 19.144 91.7491 18.008C91.7491 16.136 92.2531 14.656 93.2611 13.568C94.2851 12.48 95.6611 11.936 97.3891 11.936C97.9651 11.936 98.7491 12.024 99.7411 12.2C100.477 12.328 101.141 12.416 101.733 12.464L102.021 12.728L101.709 13.136C101.597 13.328 101.517 13.48 101.469 13.592C101.437 13.688 101.421 13.824 101.421 14V21.08C101.421 21.528 101.653 21.752 102.117 21.752C102.469 21.752 102.829 21.624 103.197 21.368L103.605 21.92C103.221 22.352 102.813 22.696 102.381 22.952C101.949 23.192 101.557 23.312 101.205 23.312C100.597 23.312 100.157 23.136 99.8851 22.784C99.6131 22.416 99.4771 21.824 99.4771 21.008C98.9011 21.856 98.3011 22.456 97.6771 22.808C97.0691 23.144 96.4051 23.312 95.6851 23.312ZM96.5251 21.608C97.7411 21.608 98.7251 20.952 99.4771 19.64V13.76C98.8531 13.344 98.1491 13.136 97.3651 13.136C96.3251 13.136 95.5091 13.528 94.9171 14.312C94.3411 15.08 94.0531 16.176 94.0531 17.6C94.0531 18.976 94.2851 19.992 94.7491 20.648C95.2291 21.288 95.8211 21.608 96.5251 21.608ZM103.843 22.328L104.347 22.184C104.843 22.04 105.171 21.84 105.331 21.584C105.507 21.328 105.643 20.92 105.739 20.36L106.603 14.456C106.619 14.392 106.627 14.296 106.627 14.168C106.627 13.848 106.523 13.6 106.315 13.424C106.123 13.248 105.819 13.104 105.403 12.992L104.995 12.848L105.187 12.2H108.835L111.955 18.824L115.123 12.2H117.955L118.291 12.488L118.003 12.848C117.491 13.536 117.235 14.2 117.235 14.84C117.235 15.032 117.259 15.224 117.307 15.416L118.051 19.112C118.083 19.24 118.115 19.416 118.147 19.64C118.339 20.488 118.507 21.12 118.651 21.536C118.795 21.936 119.051 22.32 119.419 22.688L119.179 23H114.787L114.547 22.328L114.979 22.184C115.395 22.072 115.699 21.896 115.891 21.656C116.083 21.416 116.179 21.096 116.179 20.696C116.179 20.488 116.155 20.256 116.107 20L115.243 14.576L111.979 21.56H111.307L108.019 14.576L107.203 19.808C107.171 20.032 107.155 20.192 107.155 20.288C107.155 20.944 107.395 21.624 107.875 22.328L108.139 22.688L107.851 23H104.107L103.843 22.328ZM123.351 10.112C123.111 10.112 122.831 9.944 122.511 9.608C122.191 9.272 122.031 8.968 122.031 8.696C122.031 8.424 122.183 8.12 122.487 7.784C122.807 7.448 123.095 7.28 123.351 7.28C123.623 7.28 123.919 7.448 124.239 7.784C124.559 8.12 124.719 8.424 124.719 8.696C124.719 8.968 124.559 9.272 124.239 9.608C123.919 9.944 123.623 10.112 123.351 10.112ZM124.071 23.312C123.479 23.312 123.047 23.136 122.775 22.784C122.519 22.416 122.391 21.824 122.391 21.008V14.288C122.391 14.096 122.359 13.96 122.295 13.88C122.231 13.8 122.119 13.76 121.959 13.76H120.975L120.807 13.232C121.223 12.848 121.695 12.536 122.223 12.296C122.767 12.056 123.239 11.936 123.639 11.936C123.847 11.936 124.015 12 124.143 12.128C124.287 12.24 124.359 12.392 124.359 12.584V21.08C124.359 21.576 124.575 21.824 125.007 21.824C125.343 21.824 125.711 21.672 126.111 21.368L126.519 21.92C126.119 22.336 125.695 22.672 125.247 22.928C124.815 23.184 124.423 23.312 124.071 23.312ZM127.869 22.328L128.325 22.184C128.821 22.04 129.149 21.856 129.309 21.632C129.485 21.392 129.573 20.968 129.573 20.36V14.84C129.573 14.232 129.485 13.808 129.309 13.568C129.149 13.328 128.821 13.136 128.325 12.992L127.869 12.848L128.109 12.2H132.429L132.693 12.488L132.429 12.848C132.109 13.28 131.877 13.752 131.733 14.264C131.605 14.76 131.541 15.416 131.541 16.232V16.928H136.773V14.84C136.773 14.232 136.685 13.808 136.509 13.568C136.349 13.328 136.013 13.136 135.501 12.992L135.021 12.848L135.285 12.2H139.605L139.893 12.488L139.605 12.848C139.285 13.28 139.061 13.744 138.932 14.24C138.805 14.736 138.741 15.4 138.741 16.232V20.504C138.741 21.08 138.821 21.48 138.981 21.704C139.141 21.912 139.461 22.088 139.941 22.232L140.325 22.352L140.133 23H135.285L135.021 22.328L135.501 22.184C136.013 22.04 136.349 21.856 136.509 21.632C136.685 21.392 136.773 20.968 136.773 20.36V18.2H131.541V20.504C131.541 21.08 131.621 21.48 131.781 21.704C131.957 21.912 132.285 22.088 132.765 22.232L133.197 22.352L132.98 23H128.109L127.869 22.328ZM142.447 22.328L142.903 22.184C143.399 22.04 143.727 21.848 143.887 21.608C144.063 21.368 144.151 20.952 144.151 20.36V14.84C144.151 14.248 144.063 13.832 143.887 13.592C143.711 13.336 143.383 13.136 142.903 12.992L142.447 12.848L142.687 12.2H147.031L147.295 12.488L147.031 12.848C146.695 13.296 146.455 13.768 146.311 14.264C146.183 14.76 146.119 15.416 146.119 16.232V18.968C146.119 19.848 146.239 20.512 146.479 20.96C146.735 21.392 147.031 21.664 147.367 21.776C147.719 21.888 148.135 21.944 148.615 21.944C149.335 21.944 149.911 21.744 150.343 21.344C150.791 20.928 151.015 20.384 151.015 19.712C151.015 19.104 150.767 18.6 150.271 18.2C149.775 17.784 149.135 17.576 148.351 17.576C147.935 17.576 147.599 17.616 147.343 17.696C147.103 17.76 146.951 17.792 146.887 17.792C146.823 17.792 146.767 17.752 146.719 17.672C146.671 17.576 146.647 17.48 146.647 17.384C146.647 17.112 146.855 16.912 147.271 16.784C147.687 16.656 148.175 16.592 148.735 16.592C150.191 16.592 151.311 16.896 152.095 17.504C152.895 18.112 153.295 18.872 153.295 19.784C153.295 20.776 152.887 21.56 152.071 22.136C151.271 22.712 149.999 23 148.255 23H142.687L142.447 22.328Z" fill="#373D34"/>
<path d="M0.64 22.256L1.144 22.136C1.736 21.96 2.16 21.752 2.416 21.512C2.672 21.256 2.912 20.792 3.136 20.12L6.544 10.28C6.704 9.768 6.784 9.416 6.784 9.224C6.784 8.952 6.704 8.744 6.544 8.6C6.4 8.44 6.16 8.328 5.824 8.264L5.32 8.144L5.584 7.4H9.76L14.152 19.976C14.392 20.664 14.64 21.176 14.896 21.512C15.168 21.848 15.576 22.224 16.12 22.64L15.832 23H10.912L10.672 22.256L11.2 22.136C11.536 22.056 11.776 21.944 11.92 21.8C12.08 21.64 12.16 21.424 12.16 21.152C12.16 20.992 12.12 20.808 12.04 20.6C11.976 20.376 11.928 20.216 11.896 20.12L10.864 17.072H5.848L5.32 18.656C5 19.648 4.84 20.408 4.84 20.936C4.84 21.464 4.944 21.904 5.152 22.256L5.32 22.64L4.912 23H0.928L0.64 22.256ZM6.328 15.704H10.432L8.344 9.608L6.328 15.704ZM17.6001 28.472L17.8401 28.112C18.1121 27.744 18.3041 27.352 18.4161 26.936C18.5281 26.536 18.5841 25.992 18.5841 25.304V14.72C18.5841 14.512 18.5521 14.352 18.4881 14.24C18.4241 14.128 18.3041 14.048 18.1281 14L17.0001 13.736V13.064C17.2241 12.856 17.6561 12.656 18.2961 12.464C18.9361 12.272 19.4961 12.176 19.9761 12.176C20.3441 12.176 20.5281 12.512 20.5281 13.184V13.28C21.4561 12.384 22.5041 11.936 23.6721 11.936C24.5521 11.936 25.3441 12.16 26.0481 12.608C26.7521 13.056 27.2961 13.68 27.6801 14.48C28.0801 15.264 28.2801 16.168 28.2801 17.192C28.2801 18.344 28.0721 19.392 27.6561 20.336C27.2401 21.264 26.6641 21.992 25.9281 22.52C25.2081 23.048 24.4001 23.312 23.5041 23.312C22.6401 23.312 21.9201 23.112 21.3441 22.712C21.2001 22.632 21.1281 22.504 21.1281 22.328C21.1281 22.168 21.1521 22.04 21.2001 21.944C21.2641 21.832 21.3521 21.776 21.4641 21.776C21.5121 21.776 21.6641 21.84 21.9201 21.968C22.1921 22.08 22.5441 22.136 22.9761 22.136C23.8721 22.136 24.5921 21.712 25.1361 20.864C25.6961 20.016 25.9761 18.928 25.9761 17.6C25.9761 16.352 25.6961 15.336 25.1361 14.552C24.5921 13.752 23.8641 13.352 22.9521 13.352C22.4721 13.352 22.0401 13.416 21.6561 13.544C21.2721 13.672 20.8961 13.888 20.5281 14.192V26.384C20.5281 26.944 20.5841 27.336 20.6961 27.56C20.8241 27.784 21.0721 27.936 21.4401 28.016L21.8721 28.112L21.6801 28.76H17.8401L17.6001 28.472ZM32.4576 22.664L32.7216 22.328C33.0576 21.896 33.2896 21.432 33.4176 20.936C33.5456 20.44 33.6096 19.784 33.6096 18.968V14.96C33.6096 14.352 33.5616 13.952 33.4656 13.76C33.3856 13.568 33.2016 13.472 32.9136 13.472H32.6976C32.2016 13.472 31.8176 13.52 31.5456 13.616C31.2896 13.712 31.0816 13.88 30.9216 14.12C30.7776 14.36 30.6416 14.736 30.5136 15.248L30.3696 15.68L29.6976 15.488V11.912L30.0336 11.624L30.3696 11.912C30.5616 12.056 30.8416 12.16 31.2096 12.224C31.5776 12.288 32.0656 12.32 32.6736 12.32H36.5376C37.1456 12.32 37.6256 12.288 37.9776 12.224C38.3296 12.16 38.6016 12.056 38.7936 11.912L39.1296 11.624L39.4896 11.912V15.488L38.7936 15.68L38.6976 15.248C38.5536 14.736 38.4016 14.36 38.2416 14.12C38.0976 13.88 37.8976 13.712 37.6416 13.616C37.3856 13.52 37.0176 13.472 36.5376 13.472H36.2496C35.9776 13.472 35.7936 13.568 35.6976 13.76C35.6176 13.952 35.5776 14.352 35.5776 14.96V20.36C35.5776 20.968 35.6576 21.392 35.8176 21.632C35.9776 21.856 36.3136 22.04 36.8256 22.184L37.3296 22.328L37.0656 23H32.7216L32.4576 22.664Z" fill="#373D34"/>
<path d="M47 2H69L68 5H48L47 2Z" fill="#373D34"/>
<rect x="50" y="6" width="16" height="2" fill="#373D34"/>
<path d="M52 9H54V27.5L53 28H52V9Z" fill="#373D34"/>
<path d="M55 9H58V26L57 25.5L56 26.5L55 27V9Z" fill="#373D34"/>
<path d="M59 9H62V28.5H61L60 27.5L59 27V9Z" fill="#373D34"/>
<path d="M63 9H65V29L64 28H63V9Z" fill="#373D34"/>
</svg>
